<?xml version="1.0" encoding="utf-8"?>
<!-- Generator: Adobe Illustrator 22.1.0, SVG Export Plug-In . SVG Version: 6.00 Build 0)  -->
<svg version="1.1" id="レイヤー_1" xmlns="http://www.w3.org/2000/svg" xmlns:xlink="http://www.w3.org/1999/xlink" x="0px"
	 y="0px" viewBox="0 0 27.4960632 27.4960632" enable-background="new 0 0 27.4960632 27.4960632" xml:space="preserve">
<g id="楕円形_1_2_">
	<g>
		<path fill="#D94236" d="M13.7480364,1.3079923c6.8594427,0,12.4400015,5.5805554,12.4400015,12.4400005
			s-5.5805588,12.4399996-12.4400015,12.4399996S1.3080378,20.6074352,1.3080378,13.7479925
			S6.8885927,1.3079923,13.7480364,1.3079923 M13.7480364,0.3079924c-7.4227219,0-13.4399986,6.0173335-13.4399986,13.4400005
			c0,7.4227209,6.0172768,13.4399977,13.4399986,13.4399977s13.4400015-6.0172768,13.4400015-13.4399977
			C27.1880379,6.325326,21.1707573,0.3079924,13.7480364,0.3079924L13.7480364,0.3079924z"/>
	</g>
</g>
<g id="XMLID_9_">
	<path fill="#D94236" d="M7.9041643,12.3300238l0.6225586-0.8178711c0.0488281-0.0732422,0.6591797-0.9887695,0.6835938-1.0742188
		c0.0854492-0.0732422,0.5859375-1.0253906,0.6591797-1.1474609c0.7568359-1.3305664,1.0253906-2.3071289,1.184082-2.8686523
		c0.1098633-0.3540039,0.3173828-1.6601563,0.3173828-1.7456055c0-0.0488281,0-0.0854492-0.0488281-0.1586914
		c-0.0610352-0.0488281-0.1342773-0.1342773-0.2075195-0.2075195c-0.0610352-0.0610352-0.0976563-0.0976563-0.1831055-0.0976563
		s-0.4516602,0.0854492-0.4882813,0.0854492c-0.5859375,0-1.2084961-0.6469727-1.2329102-0.769043
		c0.0366211-0.012207,0.0976563-0.0244141,0.1464844-0.0244141s0.4272461,0.0366211,0.4516602,0.0366211
		c0.1342773,0,0.7202148-0.0976563,0.8422852-0.0976563c0.3417969,0,0.378418-0.012207,0.6958008-0.0610352
		c0.1831055-0.0244141,0.9887695-0.0732422,1.1474609-0.0976563c0.3417969-0.0610352,0.7202148-0.0976563,1.0742188-0.1464844
		l1.3061523-0.1586914c0.4521484-0.0488281,0.9892578-0.1220703,1.4160147-0.2197266
		c0.0849609-0.0610352,0.0976563-0.0732422,0.1708984-0.1586914c0.0732422-0.0366211,0.2558594-0.1586914,0.2929688-0.1586914
		c0.2558594,0,0.2929688,0,0.4882813,0.1708984c0.0244141,0.0244141,0.671875,0.2563477,0.78125,0.3173828
		c0.1220703,0.0610352,0.3173828,0.2319336,0.3173828,0.4638672c0,0.2685547-0.1953125,0.2685547-0.2685547,0.2685547
		c-0.109375,0-0.2558594-0.012207-0.3662109-0.012207c-0.0615234,0-0.4033203-0.0610352-0.4394531-0.0610352
		c-0.0732422,0-0.3779297,0.0366211-0.4033203,0.0366211c-0.0849609,0-0.4755859-0.0366211-0.5488281-0.0366211
		c-0.5742178,0-0.6347647,0.012207-1.2089834,0.0488281c-0.0976563,0.012207-1.4643555,0.1220703-1.5009766,0.1220703
		c-0.0610352,0.012207-0.3540039,0.0854492-0.4150391,0.0976563c-0.1342773,0.0244141-0.7324219,0.0854492-0.8544922,0.0976563
		c-0.0854492,0.012207-0.4272461,0.0366211-0.5004883,0.0610352c-0.0366211,0-0.0854492,0.0244141-0.0854492,0.0854492
		c0,0.0854492,0.390625,0.2319336,0.4638672,0.2685547c0.2075195,0.1220703,0.4760742,0.3295898,0.4760742,0.6103516
		c0,0.1708984-0.402832,0.8178711-0.4638672,0.9521484c-0.1098633,0.2563477-0.5615234,1.4038086-0.6591797,1.6357422
		c-0.1342773,0.3051758-0.378418,0.8544922-0.378418,0.9277344c0,0.0610352,0,0.0610352,0.2319336,0.1342773
		c0.3173828,0.0976563,0.3540039,0.1220703,0.5737305,0.2563477c0.0244141,0,0.0366211,0.012207,0.0488281,0.012207
		c0.1464844,0,0.769043-0.1586914,0.8911133-0.1831055c0.3295898-0.0488281,0.8544922-0.1708984,1.184082-0.1953125
		c0.9394531-0.0488281,1.0625-0.0610352,1.4648438-0.1708984c0.0605469-0.012207,0.3662109-0.0244141,0.4511709-0.0366211
		c0.1230469-0.0732422,0.390625-0.1953125,0.4765625-0.2197266c0.5253906,0.0610352,0.671875,0.0732422,0.8789063,0.2563477
		c0.2441406,0.1953125,0.28125,0.2197266,0.6230469,0.4394531c0.0234375,0.0244141,0.2802734,0.3295898,0.2802734,0.4516602
		c0,0.0732422-0.2802734,0.2929688-0.3056641,0.3540039c-0.0234375,0.0610352-0.6347656,2.2338867-0.6347656,2.34375
		c0,0.0854492,0.0976563,0.4394531,0.0976563,0.5126953c0,0.1953125-0.1582031,0.4150391-0.5,0.4150391
		c-0.1347656,0-0.7441406-0.1098633-0.8671875-0.1220703c-0.1953115-0.012207-0.609374-0.0244141-0.781249-0.0244141
		c-0.1699219,0-1.7451172,0.0854492-2.0258789,0.2319336c-0.0610352,0.1831055-0.0976563,0.2929688-0.3051758,0.2929688
		c-0.0732422,0-0.8300781-0.1708984-0.9277344-0.9033203c-0.0854492-0.2807617-0.3173828-1.550293-0.378418-1.8066406
		c-0.0488281-0.2319336-0.2197266-1.3183594-0.2807617-1.4526367c-0.0732422-0.1586914-0.2075195-0.3051758-0.3051758-0.3051758
		c-0.0366211,0-0.0610352,0.0244141-0.0854492,0.0488281l-0.5737305,1.1230469
		c-0.0244141,0.0488281-0.2075195,0.2563477-0.2319336,0.3051758c-0.3051758,0.5493164-0.3540039,0.6225586-0.7080078,1.0009766
		c-0.0854492,0.0976563-0.4394531,0.5615234-0.5249023,0.6347656c-0.5004883,0.4516602-0.6591797,0.4638672-1.0131836,0.5126953
		l-0.0366211-0.0366211V12.3300238z M13.1409807,12.439887c0.0976563,0,0.7080078-0.1098633,1.0625-0.1708984
		c0.1953125-0.0366211,1.2441406-0.1464844,1.4033203-0.1464844c0.3417969,0,0.3662109,0,0.4150381-0.1342773
		c0.2441406-0.6958008,0.4638672-1.7578125,0.4882813-1.8310547c0.0371094-0.2563477,0.0371094-0.3662109,0.0488281-0.6591797
		c0-0.0244141,0.0605469-0.4150391,0.0605469-0.4516602c0-0.1220703-0.109375-0.1220703-0.21875-0.1220703
		c-0.6835928,0-1.2333975,0.0976563-2.1367178,0.2441406c-0.0854492,0.012207-0.5126953,0.0244141-0.5981445,0.0366211
		c-0.0976563,0.012207-0.5004883,0.0854492-0.5859375,0.0976563c-0.5126953,0.0366211-0.5737305,0.0488281-0.5981445,0.1220703
		C12.457387,9.4857855,12.457387,9.5224066,12.457387,9.7543402C12.457387,10.0106878,12.7503557,12.439887,13.1409807,12.439887z"
		/>
	<path fill="#D94236" d="M8.184926,20.6005306c0.1220703,0.0117188,0.1953125,0.0117188,0.3295898,0.0117188
		c0.1220703,0.0244141,0.2929688,0.0488281,0.378418,0.0488281c0.0610352,0,2.4291992-0.3789063,2.6489258-0.4638672
		l0.0488281-0.1953125l0.1220703-1.2333984c0.012207-0.109375,0.0366211-0.4755859,0.0244141-0.5976563
		c-0.012207,0-0.0366211-0.0244141-0.0488281-0.0244141c-0.0366211,0-0.3417969,0.0488281-0.4150391,0.0488281
		s-0.4150391,0.1337891-0.4760742,0.1337891c-0.3540039,0-1.2695313-0.5488281-1.2695313-0.5605469
		c-0.0244141-0.0371094-0.0366211-0.0615234-0.0610352-0.0976563l0.0366211-0.0371094h0.3295898
		c0.0732422,0,0.4150391,0.0732422,0.4882813,0.0732422c0.1464844,0,1.1352539-0.1591797,1.4038086-0.2314453
		c0.012207-0.0253906,0.0366211-0.1103516,0.0366211-0.1230469c0-0.4394531-0.1586914-1.1347656-0.1953125-1.5859365
		c-0.0610352-0.0488281-0.402832-0.1953125-0.4638672-0.2324219c-0.0854492-0.0488281-0.1342773-0.0732422-0.1831055-0.1347656
		c0.0244141-0.0488281,0.0610352-0.0488281,0.1342773-0.0722656c0.0610352-0.0126953,0.2807617-0.0488281,0.3295898-0.0615234
		c0.0366211-0.0126953,0.1831055-0.0615234,0.2075195-0.0615234c0.2563477,0,1.1352539,0.1835938,1.1352539,0.6113281
		c0,0.2314444-0.0366211,1.2080069-0.0366211,1.4033194c0,0.0488281,0.012207,0.0732422,0.0610352,0.1220703
		c0.2441406-0.0117188,1.3305664-0.1835938,1.5625-0.1835938c0.2685547,0,0.3046875,0,0.4150391-0.0976563l-0.0126953-0.6582031
		c0-0.1953125,0-1.1484365-0.0234375-1.2578115c-0.0742188-0.3417969-0.1103516-0.4150391-0.2929688-0.4765625
		c-0.1230469-0.0483398-0.1347656-0.0727539-0.3422852-0.2314453l-0.012207-0.0610352l0.0366211-0.0488281
		c0.0488281,0,0.2807617-0.012207,0.3178711-0.012207c0.1826172-0.0488281,0.1953125-0.0610352,0.2558594-0.0610352
		c0.1953125,0,1.3789053,0.3662109,1.3789053,0.8793945c0,0.0605469-0.1699209,0.2929688-0.1826162,0.3417969
		c-0.0361328,0.0849609-0.0615234,0.4882813-0.0849609,0.5605459c-0.0488281,0.1464844-0.0742188,0.1591797-0.0742188,0.3671875
		V16.95014l0.0371094,0.0244141c0.1347656-0.0126953,0.1953125-0.0615234,0.390624-0.1953125
		c0.1835938,0.0244141,0.7568359,0.1103516,1.0009766,0.2197266c0.1591797,0.0732422,0.2314453,0.2070313,0.2314453,0.3046875
		c0,0.2324219-0.6835938,0.3789063-0.8173828,0.3789063c-0.1826172,0-0.4882813-0.0244141-0.5859365-0.0244141
		c-0.0615234,0-0.1826172,0.0126953-0.2197266,0.0244141c-0.0244141,0.0605469-0.0371094,0.109375-0.0371094,0.1708984
		l0.0126953,0.3417969c0,0.0488281-0.0361328,0.2568359-0.0361328,0.2929688c0,0.5615234,0.0361328,1.1474609,0.0488281,1.3056641
		c0.0117188,0.0488281,0.0488281,0.0615234,0.1337891,0.0615234c0.1953115,0,1.038085-0.0488281,1.2207022-0.0488281
		c0.0244141,0,0.1708984,0.0126953,0.2080078,0.0126953c0.0722656,0,0.2802734-0.0253906,0.3652344-0.0976563
		c0.1230469-0.0859375,0.2568359-0.1591797,0.28125-0.1591797s0.9160156,0.3173828,1.0498047,0.4267578
		c0.0488281,0.0488281,0.2441406,0.3417969,0.2441406,0.4521484c0,0.2685547-0.4033203,0.2685547-0.4638672,0.2568359
		l-1.0009766-0.2080078c-0.0244141,0-0.4033203-0.0361328-0.4267578-0.0361328
		c-0.1103516,0-0.5859375-0.0488281-0.6835938-0.0488281c-0.1103516,0-0.6230469,0.0488281-0.64746,0.0488281
		c-0.1591797,0-0.1708984,0-0.2929688,0.0117188c-0.0244141,0.1953125-0.0361328,0.2685547-0.0361328,0.3662109
		c0,0.1464844,0.0117188,0.4521484,0.0234375,0.6835938c0,0.0361328-0.0488281,0.2441406-0.0488281,0.2568359
		c0,0.3779297,0.0126953,0.4267578-0.0117188,0.7070313l-0.109375,1.6240234c0,0.0849609-0.0742188,0.5859375-0.1464844,0.7568359
		c-0.0976563,0.2197266-0.2324219,0.5253906-0.3544922,0.5253906c-0.0126953,0-0.0849609,0-0.1826172-0.0253906
		c-0.0371094-0.3417969-0.0976563-0.7558594-0.0976563-0.8789063c0-0.3417969,0-1.1464844-0.0126953-1.4765625
		c0-0.1708984,0.0488281-0.890625,0.0488281-1.0498047c0-0.0488281-0.0361328-0.6474609-0.0361328-0.6591797
		c0-0.1220703,0.0361328-0.6835938,0.0361328-0.7929688c-0.0361328-0.0371094-0.0615234-0.0371094-0.0849609-0.0371094
		c-0.1835938,0-1.0014648,0.0488281-1.1601563,0.0605469c-0.1220703,0-0.6469727,0.1464844-0.7568359,0.1464844
		c-0.1708984,0-0.1953125,0-0.402832,0.0371094c-0.0854492,0.1708984-0.2441406,1.0136719-0.3051758,1.171875
		c-0.0976563,0.2324219-0.4638672,0.9277344-0.6591797,1.0986328c-0.0610352,0.0615234-0.3295898,0.3173828-0.390625,0.3662109
		c-0.0366211,0.0244141-0.9643555,0.5253906-1.184082,0.5742188c-0.2929688,0.0605469-0.4882813,0.0722656-0.78125,0.0722656
		c-0.0854492,0-0.4272461-0.0605469-0.4272461-0.1582031c0.1098633-0.0117188,0.4516602-0.0859375,0.5859375-0.1347656
		c0.0244141-0.0117188,0.1342773-0.0849609,0.1586914-0.0976563c0.5737305-0.2070313,0.6225586-0.2314453,1.1108398-0.7685547
		c0.2685547-0.2802734,0.8422852-1.5625,0.8789063-1.9169922c-0.2807617,0-0.3173828,0-0.5371094,0.0976563
		c-0.1953125,0.0859375-0.5126953,0.1464844-0.8178711,0.2080078C9.9305315,21.3075619,9.8572893,21.35639,9.747426,21.35639
		c-0.1586914,0-0.7568359-0.1464844-1.0986328-0.3535156c-0.0488281-0.0244141-0.3173828-0.1464844-0.3540039-0.1835938
		c-0.012207-0.0234375-0.0976563-0.109375-0.1220703-0.1210938c-0.012207-0.0253906-0.012207-0.0253906-0.012207-0.0859375
		L8.184926,20.6005306z M14.8128557,19.7450619l-0.0361328-0.9638672c0-0.0244141,0.0244141-0.1337891,0.0244141-0.1591797
		c-0.0244141-0.1337891-0.0488281-0.2558594-0.0488281-0.3417969c0-0.0605469,0.0244141-0.3291016,0.0244141-0.390625
		c0-0.109375-0.0244141-0.1826172-0.0976563-0.1826172c-0.0488281,0-1.9165039,0.2685547-1.9775391,0.2929688
		c-0.012207,0.0849609-0.0610352,0.4394531-0.1098633,0.7080078c0,0.3417969,0,0.390625-0.0854492,0.8183594
		c-0.012207,0.0722656-0.0366211,0.3779297-0.0366211,0.4394531c0,0.0488281,0.012207,0.0722656,0.0488281,0.1337891
		c0.3540039-0.0732422,1.9526367-0.1337891,2.2709961-0.2441406L14.8128557,19.7450619z"/>
</g>
</svg>
